<?xml version="1.0" standalone="no"?>
<!DOCTYPE svg PUBLIC "-//W3C//DTD SVG 20010904//EN"
 "http://www.w3.org/TR/2001/REC-SVG-20010904/DTD/svg10.dtd">
<svg version="1.0" xmlns="http://www.w3.org/2000/svg"
 width="900.000000pt" height="900.000000pt" viewBox="0 0 900.000000 900.000000"
 preserveAspectRatio="xMidYMid meet">
<metadata>
Created by potrace 1.14, written by Peter Selinger 2001-2017
</metadata>
<g transform="translate(0.000000,900.000000) scale(0.100000,-0.100000)"
fill="#000000" stroke="none">
<path d="M4423 8180 c0 -41 2 -58 4 -37 2 20 2 54 0 75 -2 20 -4 3 -4 -38z"/>
<path d="M4598 8223 c12 -2 32 -2 45 0 12 2 2 4 -23 4 -25 0 -35 -2 -22 -4z"/>
<path d="M4724 8198 c-3 -4 14 -8 37 -8 23 0 39 3 36 7 -10 10 -67 11 -73 1z"/>
<path d="M5655 8180 c-3 -5 -1 -10 4 -10 6 0 11 5 11 10 0 6 -2 10 -4 10 -3 0
-8 -4 -11 -10z"/>
<path d="M4820 8170 c0 -5 18 -10 39 -10 22 0 43 -4 46 -10 3 -5 22 -10 41
-10 21 0 33 4 29 10 -3 6 -21 10 -40 10 -19 0 -37 5 -40 10 -3 6 -22 10 -41
10 -19 0 -34 -4 -34 -10z"/>
<path d="M5631 8134 c0 -11 3 -14 6 -6 3 7 2 16 -1 19 -3 4 -6 -2 -5 -13z"/>
<path d="M4985 8130 c-22 -9 -12 -15 35 -23 20 -4 19 -5 -7 -6 -34 -1 -43 -17
-21 -39 9 -9 7 -12 -10 -12 -13 0 -22 -6 -22 -16 0 -9 -10 -30 -22 -47 -13
-18 -22 -38 -20 -44 4 -17 -25 -17 -31 0 -3 9 -7 9 -20 -2 -14 -11 -18 -11
-23 2 -8 22 -52 49 -65 41 -6 -3 3 -14 20 -25 17 -10 31 -22 31 -26 0 -7 16
-28 60 -80 5 -7 10 -39 10 -71 0 -45 -6 -71 -27 -108 -23 -43 -26 -61 -27
-148 -1 -71 3 -101 12 -104 6 -2 12 -10 12 -18 0 -20 70 -113 112 -149 55 -47
109 -88 132 -100 11 -6 39 -23 61 -37 37 -23 193 -100 240 -118 43 -16 81 -32
108 -46 16 -8 40 -14 53 -14 14 0 27 -6 30 -14 3 -8 15 -17 27 -21 19 -6 20
-8 4 -12 -10 -3 -24 1 -32 7 -8 6 -23 9 -34 5 -11 -3 -36 1 -56 10 -21 8 -49
15 -63 15 -14 0 -39 4 -56 9 -17 5 -76 17 -131 26 -55 9 -128 21 -161 26 -34
6 -142 11 -240 12 -177 1 -180 1 -233 -27 -29 -15 -59 -32 -65 -37 -94 -75
-249 -228 -287 -284 -12 -16 -32 -38 -45 -48 -21 -16 -25 -16 -30 -3 -3 8 3
28 14 43 50 71 124 217 188 371 8 20 19 46 24 57 21 49 35 174 21 188 -6 6
-11 17 -11 25 0 7 -6 19 -12 27 -7 7 -24 28 -38 46 -31 40 -61 69 -72 69 -5 0
-6 5 -3 10 3 6 2 10 -3 10 -5 0 -24 13 -43 29 -18 16 -37 27 -42 24 -9 -6 51
-63 66 -63 5 0 6 -9 2 -20 -4 -14 -2 -19 7 -15 7 2 24 -10 37 -27 22 -27 22
-30 5 -26 -10 2 -18 10 -17 16 4 15 -13 16 -22 2 -11 -18 6 -50 26 -50 11 0
17 -5 14 -10 -3 -6 -17 -7 -31 -4 -20 5 -24 2 -24 -15 0 -17 -6 -21 -31 -21
-27 0 -31 -3 -26 -20 4 -16 2 -20 -12 -15 -19 6 -61 -35 -61 -60 0 -9 -7 -18
-16 -22 -8 -3 -13 -11 -11 -18 6 -14 -30 -38 -45 -29 -5 4 -14 0 -19 -7 -5 -9
-3 -16 9 -21 13 -5 10 -8 -14 -13 -25 -6 -33 -14 -38 -36 -3 -17 -12 -29 -21
-29 -8 0 -15 -4 -15 -10 0 -5 -11 -10 -25 -10 -16 0 -25 -6 -25 -16 0 -18 -13
-31 -52 -57 -16 -10 -28 -24 -28 -32 0 -8 -9 -15 -20 -15 -14 0 -20 -7 -20
-22 0 -19 2 -20 10 -8 5 8 10 10 10 5 0 -17 -79 -95 -96 -95 -8 0 -19 -11 -24
-25 -5 -14 -16 -25 -25 -25 -8 0 -15 -7 -15 -15 0 -18 -26 -20 -34 -2 -3 8
-10 6 -21 -8 -9 -11 -21 -19 -26 -17 -10 2 -39 -22 -39 -33 0 -3 9 -1 21 5 18
10 20 9 17 -7 -2 -10 -10 -18 -18 -18 -14 0 -30 -13 -30 -26 0 -3 18 -14 40
-25 22 -10 40 -22 40 -26 0 -5 6 -8 14 -8 8 0 37 -11 65 -25 28 -14 74 -36
102 -50 28 -14 59 -25 69 -25 11 0 22 -4 25 -10 3 -5 17 -10 29 -10 13 0 29
-7 36 -15 7 -8 23 -15 36 -15 29 0 38 -14 19 -30 -9 -8 -27 -10 -47 -6 -36 7
-44 9 -220 32 -120 16 -221 14 -257 -5 -11 -6 -31 -11 -45 -11 -25 0 -56 -13
-82 -35 -7 -5 -27 -21 -45 -35 -19 -14 -57 -48 -86 -76 -29 -28 -53 -50 -53
-47 0 5 -30 -27 -90 -98 -25 -29 -56 -64 -70 -78 -14 -14 -37 -42 -52 -61 -14
-19 -34 -44 -45 -55 -10 -11 -32 -38 -48 -60 -29 -39 -36 -48 -62 -79 -7 -8
-13 -19 -13 -24 0 -4 -15 -24 -32 -44 -36 -39 -78 -65 -78 -49 0 17 23 61 32
61 4 0 8 7 8 15 0 9 9 26 21 38 30 33 52 84 44 104 -6 15 -9 14 -20 -11 l-12
-28 -8 33 c-5 23 -9 28 -12 17 -2 -10 -8 -18 -13 -18 -4 0 -6 -9 -3 -20 3 -11
10 -20 15 -20 5 0 1 -13 -9 -30 -19 -33 -28 -37 -36 -17 -6 15 -67 11 -67 -4
0 -5 6 -6 13 -4 6 3 20 -9 29 -25 15 -27 16 -32 3 -36 -8 -4 -15 -15 -15 -26
0 -10 -6 -18 -12 -17 -27 3 -37 -2 -32 -16 5 -11 -1 -15 -17 -15 -19 0 -21 2
-9 10 8 5 11 12 7 16 -4 4 -12 3 -19 -4 -8 -8 -8 -15 0 -25 14 -17 6 -28 -15
-20 -12 5 -14 0 -9 -28 4 -24 3 -28 -3 -14 l-9 20 -8 -20 c-15 -36 -93 -105
-119 -105 -27 0 -32 -9 -13 -28 6 -6 9 -15 5 -18 -10 -10 -37 16 -37 35 0 10
-7 26 -15 37 -8 10 -15 29 -15 42 0 12 -4 22 -10 22 -13 0 -13 -57 0 -65 5 -3
10 -17 10 -31 0 -14 7 -27 15 -30 8 -4 12 -10 9 -15 -3 -5 2 -23 10 -41 9 -17
16 -37 16 -45 0 -7 5 -13 10 -13 6 0 10 -9 10 -19 0 -11 7 -26 15 -35 8 -8 15
-19 15 -25 0 -5 14 -34 31 -63 16 -29 33 -61 36 -70 3 -10 9 -18 14 -18 5 0 9
-4 9 -10 0 -5 28 -49 62 -97 54 -76 85 -116 182 -230 29 -34 36 -28 36 27 0
31 4 50 11 50 7 0 33 -13 58 -28 42 -25 91 -50 146 -71 54 -22 187 -53 296
-71 86 -13 443 -13 528 1 209 33 335 74 439 142 23 15 47 25 52 22 6 -4 10
-67 10 -152 l0 -147 -49 -47 c-66 -64 -151 -103 -306 -142 -138 -36 -195 -42
-387 -42 -108 0 -194 -3 -192 -6 2 -4 18 -12 36 -19 18 -7 49 -19 68 -27 19
-8 44 -18 55 -22 24 -10 174 -56 230 -70 194 -51 328 -64 565 -58 206 6 281
14 395 40 146 34 355 98 355 110 0 4 -25 7 -55 7 -124 0 -352 53 -466 109 -76
38 -99 56 -133 106 -25 37 -26 43 -26 192 0 129 2 155 15 160 9 3 23 -1 33
-10 79 -70 330 -148 522 -162 41 -3 105 -7 142 -10 120 -9 370 15 493 47 181
47 229 73 296 155 29 38 60 74 66 81 59 62 247 394 282 497 7 22 19 54 26 70
19 45 52 161 70 245 9 41 20 94 26 118 22 99 32 349 21 506 -7 85 -16 174 -21
198 -6 24 -18 79 -27 123 -15 71 -71 256 -94 310 -31 75 -119 249 -147 293
-18 29 -33 54 -33 57 0 6 -97 140 -139 193 l-35 42 -13 -37 c-8 -21 -17 -47
-19 -58 -3 -11 -9 -29 -13 -40 -24 -61 -44 -165 -65 -339 -13 -107 -26 -142
-46 -132 -3 2 -52 26 -110 54 -407 195 -420 202 -432 227 -11 24 0 97 33 226
5 20 9 48 9 62 0 14 5 29 10 32 6 3 10 16 10 28 0 20 19 88 41 142 4 11 10 29
12 40 8 29 46 134 64 173 18 41 12 58 -24 74 -15 7 -30 15 -33 18 -11 12 -219
110 -234 110 -8 0 -18 5 -21 10 -3 6 -16 10 -28 10 -12 0 -31 7 -41 15 -22 17
-32 17 -61 5z m42 -46 c-3 -3 -12 -4 -19 -1 -8 3 -5 6 6 6 11 1 17 -2 13 -5z
m-811 -891 c-10 -10 -19 5 -10 18 6 11 8 11 12 0 2 -7 1 -15 -2 -18z m1324
-459 c41 -8 89 -20 106 -25 17 -5 40 -9 52 -9 11 0 23 -4 26 -9 3 -5 18 -12
33 -15 83 -19 206 -106 229 -163 12 -29 12 -37 0 -61 -34 -65 -119 -121 -261
-172 -112 -40 -325 -70 -507 -70 -365 0 -661 90 -753 229 -25 36 -25 41 -12
73 47 111 301 217 572 239 138 11 429 1 515 -17z m-1890 -104 c0 -5 -4 -10
-10 -10 -5 0 -10 5 -10 10 0 6 5 10 10 10 6 0 10 -4 10 -10z m869 -358 c122
-73 215 -103 446 -143 91 -16 429 -16 525 0 132 21 236 46 295 71 50 20 113
51 147 71 63 38 68 28 68 -123 0 -73 -5 -149 -10 -168 -19 -68 -127 -146 -260
-188 -169 -53 -304 -72 -508 -72 -212 0 -286 10 -510 69 -90 24 -220 108 -246
159 -14 29 -30 291 -19 330 7 28 16 28 72 -6z m23 -505 c51 -33 156 -73 248
-96 153 -38 209 -44 425 -44 274 -1 361 12 565 81 41 14 99 41 129 59 81 52
86 48 88 -82 0 -61 -4 -129 -9 -153 -30 -122 -278 -228 -590 -254 -139 -12
-375 -2 -528 22 -179 28 -363 119 -405 200 -11 22 -15 64 -15 165 0 157 2 159
92 102z m-762 -52 c69 -7 148 -19 175 -25 92 -22 160 -42 169 -51 6 -5 18 -9
29 -9 23 0 145 -78 181 -116 66 -72 12 -163 -136 -232 -26 -12 -51 -22 -55
-22 -5 0 -19 -6 -33 -13 -14 -7 -52 -19 -85 -26 -33 -7 -89 -21 -125 -29 -81
-20 -535 -23 -615 -4 -27 6 -70 16 -95 22 -25 7 -56 14 -70 16 -73 15 -213 89
-264 141 -64 63 -63 97 2 162 46 46 101 81 129 81 7 0 13 5 13 10 0 6 8 10 18
10 10 0 27 7 38 15 10 8 29 15 42 15 12 0 30 4 40 9 9 6 38 13 64 16 26 3 50
10 53 16 4 5 34 9 68 10 34 1 87 4 117 9 89 12 207 11 340 -5z m731 -429 c109
-74 302 -132 524 -156 168 -19 434 -5 590 31 121 28 277 90 316 125 8 8 23 14
33 14 16 0 17 -14 14 -169 -3 -165 -4 -170 -28 -196 -145 -156 -570 -239 -965
-189 -190 24 -199 26 -210 34 -5 4 -26 11 -45 15 -48 10 -176 70 -218 101 -66
51 -72 70 -72 252 0 179 0 179 61 138z m-1619 -48 c130 -81 234 -113 468 -148
187 -28 429 -19 615 22 127 28 310 101 350 139 5 5 15 9 22 9 10 0 13 -38 13
-173 0 -170 0 -173 -25 -199 -52 -56 -129 -100 -245 -139 -187 -63 -519 -87
-750 -54 -157 23 -173 26 -195 35 -51 21 -112 40 -128 40 -9 0 -17 4 -17 8 0
4 -12 12 -27 18 -42 17 -131 86 -142 112 -13 28 -26 278 -17 326 4 20 11 36
16 36 5 0 33 -15 62 -32z"/>
<path d="M5606 8095 c4 -8 8 -15 10 -15 2 0 4 7 4 15 0 8 -4 15 -10 15 -5 0
-7 -7 -4 -15z"/>
<path d="M5580 8051 c0 -25 6 -27 13 -6 4 8 2 17 -3 20 -6 4 -10 -3 -10 -14z"/>
<path d="M4470 8052 c0 -5 43 -9 95 -9 52 0 95 4 95 8 0 5 -43 9 -95 9 -52 0
-95 -4 -95 -8z"/>
<path d="M4695 8031 c-3 -5 2 -11 10 -15 8 -3 17 -1 20 3 3 5 -2 11 -10 15 -8
3 -17 1 -20 -3z"/>
<path d="M5556 8011 c-4 -7 -5 -15 -2 -18 9 -9 19 4 14 18 -4 11 -6 11 -12 0z"/>
<path d="M4370 7999 c0 -5 5 -7 10 -4 6 3 10 8 10 11 0 2 -4 4 -10 4 -5 0 -10
-5 -10 -11z"/>
<path d="M4748 7998 c9 -9 15 -9 24 0 9 9 7 12 -12 12 -19 0 -21 -3 -12 -12z"/>
<path d="M4332 7969 c-7 -12 -11 -23 -8 -26 3 -3 8 2 12 11 3 9 13 16 21 16 8
0 11 5 8 10 -9 15 -19 12 -33 -11z"/>
<path d="M5537 7973 c-11 -10 -8 -43 3 -43 6 0 10 11 10 25 0 26 -2 29 -13 18z"/>
<path d="M4290 7930 c0 -5 5 -10 10 -10 6 0 10 5 10 10 0 6 -4 10 -10 10 -5 0
-10 -4 -10 -10z"/>
<path d="M5510 7905 c0 -9 -7 -23 -15 -31 -16 -16 -21 -54 -7 -54 11 0 41 90
31 96 -5 3 -9 -2 -9 -11z"/>
<path d="M4228 7903 c7 -3 16 -2 19 1 4 3 -2 6 -13 5 -11 0 -14 -3 -6 -6z"/>
<path d="M4255 7880 c-3 -5 -1 -10 4 -10 6 0 11 5 11 10 0 6 -2 10 -4 10 -3 0
-8 -4 -11 -10z"/>
<path d="M4158 7803 c7 -3 16 -2 19 1 4 3 -2 6 -13 5 -11 0 -14 -3 -6 -6z"/>
<path d="M5460 7785 c0 -14 -7 -28 -15 -31 -8 -4 -15 -18 -15 -33 0 -15 -4
-31 -10 -37 -5 -5 -10 -26 -12 -46 -1 -20 -6 -36 -12 -35 -11 2 -25 -51 -33
-125 -3 -27 -9 -48 -13 -48 -5 0 -12 -27 -16 -60 -4 -33 -11 -63 -15 -66 -5
-3 -9 -25 -9 -48 0 -43 1 -44 56 -70 30 -15 60 -24 65 -21 5 4 9 -1 9 -9 0
-20 36 -21 44 -1 4 10 -1 15 -15 15 -12 0 -23 8 -26 20 -3 11 -12 20 -21 20
-8 0 -12 3 -9 7 4 3 1 13 -6 21 -10 13 -8 14 15 10 23 -4 25 -3 19 16 -5 12
-6 27 -4 34 3 6 0 12 -7 12 -6 0 -8 5 -5 11 16 24 15 67 0 83 -17 16 -12 56 6
56 5 0 9 7 9 15 0 9 -10 15 -27 16 -18 1 -21 3 -10 6 9 2 15 9 12 14 -4 5 1 9
9 9 19 0 21 36 4 44 -10 5 -10 7 -1 12 9 4 11 21 7 60 -6 45 -4 54 9 54 9 0
17 12 20 33 3 17 9 44 12 60 5 17 3 27 -4 27 -6 0 -11 -11 -11 -25z m-40 -415
c0 -5 -4 -10 -10 -10 -5 0 -10 5 -10 10 0 6 5 10 10 10 6 0 10 -4 10 -10z"/>
<path d="M3928 7683 c6 -2 18 -2 25 0 6 3 1 5 -13 5 -14 0 -19 -2 -12 -5z"/>
<path d="M3843 7543 c9 -2 25 -2 35 0 9 3 1 5 -18 5 -19 0 -27 -2 -17 -5z"/>
<path d="M3960 7540 c37 -12 199 -12 180 0 -8 5 -58 9 -110 9 -63 -1 -87 -4
-70 -9z"/>
<path d="M4160 7520 c0 -5 7 -10 15 -10 8 0 18 0 22 -1 4 0 9 4 11 10 2 6 -8
11 -22 11 -14 0 -26 -4 -26 -10z"/>
<path d="M3678 7393 c7 -3 16 -2 19 1 4 3 -2 6 -13 5 -11 0 -14 -3 -6 -6z"/>
<path d="M4256 7345 c-11 -8 -17 -18 -13 -21 10 -11 37 4 37 21 0 18 0 18 -24
0z"/>
<path d="M4207 7313 c-4 -3 -7 -15 -7 -25 0 -26 24 -17 28 10 3 21 -8 29 -21
15z"/>
<path d="M3710 7299 c0 -5 5 -7 10 -4 6 3 10 8 10 11 0 2 -4 4 -10 4 -5 0 -10
-5 -10 -11z"/>
<path d="M4140 7240 c0 -5 5 -10 10 -10 6 0 10 5 10 10 0 6 -4 10 -10 10 -5 0
-10 -4 -10 -10z"/>
<path d="M5490 7130 c0 -5 9 -10 20 -10 11 0 20 5 20 10 0 6 -9 10 -20 10 -11
0 -20 -4 -20 -10z"/>
<path d="M5762 7110 c0 -19 2 -27 5 -17 2 9 2 25 0 35 -3 9 -5 1 -5 -18z"/>
<path d="M5545 7100 c3 -5 13 -10 21 -10 8 0 14 5 14 10 0 6 -9 10 -21 10 -11
0 -17 -4 -14 -10z"/>
<path d="M5595 7080 c3 -5 11 -10 16 -10 6 0 7 5 4 10 -3 6 -11 10 -16 10 -6
0 -7 -4 -4 -10z"/>
<path d="M5648 7053 c7 -3 16 -2 19 1 4 3 -2 6 -13 5 -11 0 -14 -3 -6 -6z"/>
<path d="M3420 6943 c0 -28 3 -34 10 -23 13 20 13 60 0 60 -5 0 -10 -17 -10
-37z"/>
<path d="M3421 6730 c-2 -46 1 -51 49 -99 51 -51 80 -64 80 -36 0 8 -7 15 -15
15 -9 0 -31 15 -50 34 -18 19 -36 31 -39 28 -3 -3 -6 18 -6 46 0 66 -16 76
-19 12z"/>
<path d="M2285 6710 c3 -5 8 -10 11 -10 2 0 4 5 4 10 0 6 -5 10 -11 10 -5 0
-7 -4 -4 -10z"/>
<path d="M2310 6678 c0 -10 5 -18 10 -18 6 0 10 -11 10 -24 0 -14 5 -28 10
-31 6 -3 10 -21 10 -38 0 -24 3 -28 10 -17 8 13 10 12 10 -2 0 -10 -7 -18 -15
-18 -21 0 -19 -13 5 -35 24 -22 25 -29 4 -49 -13 -14 -13 -16 -1 -16 13 0 12
-6 -3 -37 -17 -36 -18 -62 -1 -34 5 8 11 9 15 3 3 -6 1 -12 -5 -14 -8 -3 -8
-15 -1 -43 11 -41 10 -100 -2 -112 -9 -10 -7 -41 4 -45 5 -2 7 -19 4 -40 -4
-21 -10 -35 -15 -32 -5 3 -9 1 -9 -5 0 -5 5 -11 12 -13 8 -3 7 -11 -5 -28 -21
-30 -22 -53 -2 -26 14 19 15 19 15 -5 0 -14 -6 -31 -12 -37 -10 -10 -10 -15 1
-21 9 -6 10 -11 2 -15 -6 -4 -11 -14 -11 -22 0 -8 5 -12 10 -9 6 3 10 1 10 -4
0 -6 -4 -11 -9 -11 -5 0 -7 -9 -4 -20 3 -10 -2 -26 -11 -35 -22 -22 -21 -41 1
-24 45 36 156 159 179 198 23 38 26 54 26 135 0 85 -4 100 -41 191 -5 11 -20
45 -35 75 -14 30 -26 61 -26 68 0 6 -3 12 -7 12 -5 0 -17 20 -28 45 -11 25
-22 45 -26 45 -4 0 -10 11 -13 25 -4 14 -11 23 -16 20 -6 -3 -10 2 -10 12 0
10 -9 29 -20 43 -16 20 -20 22 -20 8z"/>
<path d="M2992 6550 c0 -14 2 -19 5 -12 2 6 2 18 0 25 -3 6 -5 1 -5 -13z"/>
<path d="M2993 6300 c0 -36 2 -50 4 -32 2 17 2 47 0 65 -2 17 -4 3 -4 -33z"/>
<path d="M2960 6198 c0 -19 -5 -39 -11 -45 -6 -6 -9 -26 -7 -44 l4 -34 8 30
c4 17 11 38 17 47 12 23 12 65 -1 73 -6 4 -10 -8 -10 -27z"/>
<path d="M2672 6125 c0 -53 2 -73 8 -60 11 25 11 82 0 115 -5 17 -8 0 -8 -55z"/>
<path d="M2910 6056 c0 -14 -4 -27 -9 -31 -14 -8 -41 -65 -41 -87 0 -10 -6
-17 -12 -15 -7 1 -14 -8 -16 -21 -2 -13 -8 -20 -14 -16 -8 5 -9 1 -5 -10 4
-10 7 -27 7 -37 0 -11 5 -17 10 -14 6 3 10 15 10 26 0 10 5 19 10 19 6 0 10 8
10 19 0 10 7 24 15 31 9 7 14 19 11 27 -3 8 1 16 9 19 8 4 15 17 15 29 0 13 5
27 10 30 6 3 10 17 10 31 0 13 -4 24 -10 24 -5 0 -10 -11 -10 -24z"/>
<path d="M2640 5995 c0 -8 5 -15 10 -15 6 0 10 7 10 15 0 8 -4 15 -10 15 -5 0
-10 -7 -10 -15z"/>
<path d="M2620 5951 c0 -6 5 -13 10 -16 6 -3 10 1 10 9 0 9 -4 16 -10 16 -5 0
-10 -4 -10 -9z"/>
<path d="M2602 5910 c0 -14 2 -19 5 -12 2 6 2 18 0 25 -3 6 -5 1 -5 -13z"/>
<path d="M2515 5820 c-38 -38 -66 -72 -62 -76 7 -8 37 20 37 35 0 6 5 11 10
11 12 0 60 45 60 56 0 4 8 13 17 20 10 7 15 15 12 18 -3 3 -36 -26 -74 -64z"/>
<path d="M2310 5769 c0 -5 5 -7 10 -4 6 3 10 8 10 11 0 2 -4 4 -10 4 -5 0 -10
-5 -10 -11z"/>
<path d="M2698 5753 c7 -3 16 -2 19 1 4 3 -2 6 -13 5 -11 0 -14 -3 -6 -6z"/>
<path d="M2417 5717 c-10 -10 -17 -20 -15 -22 6 -6 40 24 37 32 -2 5 -12 0
-22 -10z"/>
<path d="M2355 5650 c-21 -22 -24 -30 -13 -30 9 0 18 9 21 20 3 11 12 20 21
20 9 0 16 5 16 10 0 18 -16 11 -45 -20z"/>
<path d="M2615 5670 c-3 -4 8 -16 23 -25 15 -10 24 -14 20 -10 -4 5 -3 14 3
22 6 7 8 13 3 14 -5 0 -17 2 -26 4 -10 2 -20 0 -23 -5z"/>
<path d="M2309 5603 c-6 -34 -5 -61 2 -78 5 -14 8 -5 8 33 1 28 -1 52 -4 52
-3 0 -6 -3 -6 -7z"/>
<path d="M2545 5590 c3 -5 11 -10 16 -10 6 0 7 5 4 10 -3 6 -11 10 -16 10 -6
0 -7 -4 -4 -10z"/>
<path d="M2450 5570 c-12 -8 -11 -10 8 -10 12 0 22 5 22 10 0 13 -11 13 -30 0z"/>
<path d="M2471 5514 c0 -11 3 -14 6 -6 3 7 2 16 -1 19 -3 4 -6 -2 -5 -13z"/>
<path d="M4135 3680 c-7 -8 -53 -112 -103 -230 -189 -452 -255 -607 -283 -668
-16 -35 -29 -70 -29 -77 0 -8 -4 -17 -10 -20 -5 -3 -10 -13 -10 -22 0 -8 -9
-26 -20 -40 l-19 -25 -3 114 -3 113 -295 5 -295 5 0 85 0 85 265 5 265 5 3
117 3 118 -268 2 -268 3 0 80 0 80 290 5 290 5 3 128 3 127 -451 0 -450 0 0
-555 0 -555 618 0 617 1 11 27 c6 15 25 59 41 97 l29 70 209 3 c129 1 212 -1
219 -8 5 -5 26 -49 47 -97 l37 -88 153 -3 c163 -3 187 0 172 21 -5 6 -29 59
-53 117 -24 58 -47 109 -52 115 -4 5 -8 15 -8 22 0 7 -12 38 -26 70 -34 76
-32 70 -119 278 -41 99 -80 189 -85 200 -5 11 -15 36 -23 55 -8 19 -23 55 -34
80 -11 25 -30 71 -43 102 l-23 57 -144 3 c-119 2 -147 0 -158 -12z m165 -391
c0 -6 7 -27 16 -47 9 -21 20 -46 24 -57 4 -11 20 -48 34 -83 40 -96 44 -92
-94 -92 -121 0 -130 3 -111 38 9 15 79 191 94 235 7 19 37 24 37 6z"/>
<path d="M1704 3684 c-7 -3 -58 -144 -115 -314 -56 -171 -106 -310 -111 -310
-5 0 -10 6 -12 13 -2 6 -27 91 -56 187 -29 96 -58 195 -65 220 -8 25 -24 80
-37 123 l-23 77 -162 0 c-165 0 -173 -2 -153 -38 5 -9 44 -123 86 -252 166
-509 267 -806 276 -817 12 -14 244 -19 264 -5 6 4 13 16 16 27 4 11 34 99 68
195 33 96 77 222 97 280 19 58 37 107 39 109 9 10 25 -18 50 -89 120 -342 147
-420 159 -458 22 -71 24 -72 152 -72 63 0 122 4 132 10 13 6 63 146 170 472
84 255 156 472 161 483 11 25 50 143 50 150 0 3 -72 5 -159 5 l-160 0 -16 -57
c-9 -32 -32 -110 -51 -173 -56 -183 -80 -261 -99 -327 -10 -35 -22 -63 -26
-63 -8 0 -12 12 -131 370 -45 135 -86 248 -92 252 -12 8 -234 9 -252 2z"/>
<path d="M4960 3125 l0 -555 425 0 426 0 -3 133 -3 132 -260 3 c-192 2 -261 6
-267 15 -4 6 -8 194 -8 417 l1 405 -156 3 -155 3 0 -556z"/>
<path d="M5680 3550 l0 -130 163 -2 162 -3 3 -422 2 -423 155 0 155 0 2 423 3
422 165 5 165 5 3 128 3 127 -491 0 -490 0 0 -130z"/>
<path d="M6710 3125 l0 -555 155 0 155 0 2 211 3 211 189 0 c144 -1 191 -4
198 -14 5 -7 8 -101 7 -208 l-2 -195 152 0 152 0 -1 550 0 550 -151 0 -151 0
-1 -200 -2 -200 -188 -5 c-103 -3 -192 -3 -197 -2 -6 2 -10 83 -10 208 l0 204
-155 0 -155 0 0 -555z"/>
<path d="M2245 2476 c-187 -47 -295 -172 -295 -343 0 -90 16 -137 68 -194 57
-64 148 -107 312 -149 195 -50 241 -77 226 -135 -11 -42 -53 -60 -142 -59
-107 1 -189 27 -291 91 -61 39 -64 39 -80 14 -7 -11 -42 -53 -78 -94 -36 -42
-65 -79 -65 -84 0 -9 113 -93 124 -93 3 0 29 -11 58 -25 83 -38 164 -56 284
-62 172 -9 284 18 377 90 141 109 169 333 57 460 -61 69 -150 108 -365 162
-126 32 -175 61 -175 104 0 16 10 37 23 49 20 19 35 22 99 22 84 0 159 -22
246 -71 30 -17 58 -27 62 -22 21 24 140 195 140 202 0 11 -53 50 -105 77 -121
64 -349 92 -480 60z"/>
<path d="M5379 2475 c-196 -54 -337 -188 -405 -385 -29 -84 -26 -282 5 -370
49 -141 156 -263 284 -324 94 -44 163 -60 267 -60 166 1 289 46 397 147 81 76
91 94 67 117 -31 30 -194 140 -207 140 -7 0 -30 -19 -52 -41 -57 -60 -104 -79
-198 -79 -67 0 -85 4 -123 26 -97 57 -144 147 -144 275 0 66 4 84 33 140 57
113 144 159 272 146 64 -6 103 -26 161 -79 27 -25 48 -37 56 -32 52 31 208
160 208 172 0 25 -120 131 -185 163 -34 16 -85 36 -115 44 -67 18 -256 18
-321 0z"/>
<path d="M4232 2468 c-5 -7 -33 -69 -62 -138 -29 -69 -62 -148 -75 -175 -12
-28 -39 -91 -60 -140 -59 -144 -166 -397 -181 -430 -31 -67 -94 -219 -91 -221
1 -2 72 -4 157 -5 l155 -2 17 34 c10 19 31 64 47 102 l30 67 205 0 c157 0 208
-3 218 -13 7 -8 29 -53 48 -100 l35 -87 162 0 c90 0 163 3 163 7 0 7 -56 144
-92 222 -10 24 -28 66 -39 95 -11 28 -31 74 -45 104 -13 29 -24 55 -24 58 0 3
-11 29 -24 57 -13 29 -49 115 -81 192 -32 77 -62 144 -66 150 -5 5 -9 15 -9
21 0 7 -13 41 -29 76 -16 35 -36 80 -45 101 l-15 37 -144 0 c-104 0 -147 -4
-155 -12z m180 -433 c10 -28 22 -59 27 -70 39 -92 63 -157 58 -161 -7 -8 -226
-8 -234 -1 -4 5 88 255 104 280 10 17 26 -1 45 -48z"/>
<path d="M2950 1925 c0 -300 -1 -548 -2 -552 -3 -9 290 -21 303 -13 5 3 10 75
11 160 l3 155 150 6 c116 5 164 12 210 28 184 66 273 200 263 395 -9 183 -112
300 -306 350 -51 13 -119 16 -348 16 l-284 0 0 -545z m550 269 c53 -21 80 -66
80 -132 0 -40 -5 -57 -27 -83 -40 -47 -78 -59 -193 -59 l-100 0 0 138 c0 76 3
142 7 145 14 14 192 7 233 -9z"/>
<path d="M6080 2463 c-3 -112 1 -1097 4 -1101 2 -4 205 -6 450 -4 l447 2 -3
128 -3 127 -295 5 -295 5 -3 73 c-2 46 2 79 9 88 9 11 60 14 270 14 l259 0 0
120 0 120 -264 0 c-231 0 -265 2 -270 16 -9 23 -7 127 2 141 6 10 81 13 297
15 l290 3 0 125 0 125 -447 3 c-247 1 -448 -1 -448 -5z"/>
<path d="M2230 955 l0 -205 25 0 c24 0 24 2 27 83 l3 82 128 3 c105 2 129 5
134 18 10 27 -18 34 -144 34 l-123 0 0 70 0 69 148 3 c144 3 147 3 150 26 l3
22 -175 0 -176 0 0 -205z"/>
<path d="M2784 1144 c-51 -18 -118 -74 -138 -116 -64 -127 59 -278 226 -278
189 0 307 143 237 287 -12 24 -35 54 -53 67 -69 53 -186 70 -272 40z m188 -49
c19 -8 49 -30 67 -50 26 -30 31 -44 31 -88 0 -98 -71 -157 -190 -157 -69 0
-115 18 -155 60 -27 28 -30 38 -30 95 0 54 4 68 25 91 55 59 173 82 252 49z"/>
<path d="M3204 1146 c-3 -9 -4 -75 -2 -148 5 -160 16 -186 95 -223 80 -39 185
-32 251 16 50 36 62 82 62 232 l0 138 -27 -3 -28 -3 -5 -146 c-4 -106 -9 -151
-19 -163 -53 -64 -208 -60 -251 6 -11 16 -16 63 -20 163 -5 136 -6 140 -28
143 -13 2 -24 -3 -28 -12z"/>
<path d="M3720 955 l0 -205 25 0 25 0 0 160 c0 133 2 160 14 160 8 0 22 -10
30 -21 41 -59 280 -299 297 -299 18 0 19 10 19 206 l0 205 -22 -3 c-23 -3 -23
-6 -26 -155 -1 -84 -6 -153 -11 -153 -5 0 -75 70 -156 155 -110 116 -153 155
-171 155 l-24 0 0 -205z"/>
<path d="M4244 1147 c-2 -7 -3 -98 -2 -202 l3 -190 109 -3 c121 -3 172 9 239
55 73 51 98 152 57 232 -43 85 -130 121 -291 121 -80 0 -111 -3 -115 -13z
m257 -48 c79 -27 132 -115 109 -183 -14 -44 -66 -92 -115 -106 -22 -6 -75 -10
-119 -8 l-78 3 0 148 c1 81 1 149 1 152 2 10 169 5 202 -6z"/>
<path d="M4896 1138 c-14 -23 -43 -78 -118 -218 -23 -41 -51 -94 -64 -117 -30
-52 -30 -53 1 -53 19 0 32 11 56 50 l31 50 126 0 c70 0 132 -4 137 -8 6 -4 19
-24 30 -45 19 -36 53 -56 74 -43 6 4 -6 34 -28 74 -21 37 -57 103 -81 147 -94
175 -100 185 -126 185 -14 0 -29 -9 -38 -22z m61 -75 c4 -10 24 -49 45 -86 21
-37 36 -72 33 -77 -7 -11 -173 -14 -198 -4 -15 6 -11 17 60 142 25 44 49 54
60 25z"/>
<path d="M5154 1146 c-11 -29 7 -36 87 -36 l79 0 0 -180 0 -180 25 0 25 0 0
180 0 179 83 3 c74 3 82 5 82 23 0 19 -8 20 -188 23 -158 2 -188 0 -193 -12z"/>
<path d="M5620 955 l0 -206 23 3 c22 3 22 3 22 203 0 200 0 200 -22 203 l-23
3 0 -206z"/>
<path d="M5914 1144 c-49 -18 -119 -75 -139 -115 -8 -15 -15 -50 -15 -77 0
-103 98 -191 222 -200 196 -14 333 141 255 289 -24 44 -87 96 -126 102 -11 2
-24 6 -27 10 -13 12 -127 6 -170 -9z m195 -54 c64 -32 91 -73 91 -135 0 -47
-5 -59 -31 -90 -40 -45 -87 -65 -152 -65 -71 0 -121 18 -159 57 -30 31 -33 39
-33 98 0 54 4 68 25 91 58 63 181 84 259 44z"/>
<path d="M6354 1147 c-2 -7 -3 -98 -2 -202 l3 -190 25 0 25 0 1 153 c1 84 4
156 7 159 5 5 121 -112 262 -265 31 -34 55 -52 68 -50 17 3 18 14 18 203 l0
200 -23 0 c-23 0 -23 0 -26 -152 -2 -113 -6 -153 -15 -152 -6 1 -39 31 -72 68
-191 211 -221 241 -243 241 -12 0 -25 -6 -28 -13z"/>
</g>
</svg>
